# xmcd
#
# Track frame offsets: 
#        150
#        19299
#        50384
#        74290
#        90192
#        113151
#        131509
#        157799
#        177275
#        194922
#        211590
#        240496
#        256256
#        271256
#        286965
#        306686
#        321239
#        342047
#
# Disc length: 4774 seconds
#
# Revision: 0
# Processed by: cddbd v1.5.2PL0 Copyright (c) Steve Scherf et al.
# Submitted via: ExactAudioCopy v1.0b4
#
DISCID=fd12a412
DTITLE=The Prowlers - The Prowlers
DYEAR=2012
DGENRE=Blues
TTITLE0=Hands Of Misery
TTITLE1=Midnight Road
TTITLE2=Screamin' Eagle
TTITLE3=On The Prowl
TTITLE4=The Wolf
TTITLE5=Travel On Blues
TTITLE6=Hearts On Fire
TTITLE7=Ariana
TTITLE8=Barrelhouser
TTITLE9=Only Politicians
TTITLE10=When The Wolf Howls
TTITLE11=Moonshine
TTITLE12=Freight Train
TTITLE13=Do Nothing
TTITLE14=Beat The Blues
TTITLE15=Down From Heaven
TTITLE16=Water
TTITLE17=Electric Love
EXTD=
EXTT0=
EXTT1=
EXTT2=
EXTT3=
EXTT4=
EXTT5=
EXTT6=
EXTT7=
EXTT8=
EXTT9=
EXTT10=
EXTT11=
EXTT12=
EXTT13=
EXTT14=
EXTT15=
EXTT16=
EXTT17=
PLAYORDER=
